# xmcd
#
# Track frame offsets: 
#        150
#        12737
#        23810
#        32127
#        43547
#        55280
#        64217
#        73052
#        81715
#        92247
#        101100
#        110990
#        121330
#        131017
#        143800
#        155407
#        165895
#        173817
#        183750
#        194040
#        201790
#        211942
#        221740
#        230397
#
# Disc length: 3185 seconds
#
# Revision: 0
# Processed by: cddbd v1.5.1PL0 Copyright (c) Steve Scherf et al.
# Submitted via: ExactAudioCopy v0.95a5
#
DISCID=6b0c6f18
DTITLE=Phil Friendly - I Got 99 Women!
DYEAR=2003
DGENRE=Country
TTITLE0=I Got 99 Women!
TTITLE1=World Of Pain
TTITLE2=Don't Take Me Back
TTITLE3=I'm Feelin' Sorry
TTITLE4=I Know That You Know It
TTITLE5=It'll Be Me
TTITLE6=Why I'm Walking
TTITLE7=I Like Your Kind Of Love
TTITLE8=Move On (Carry On)
TTITLE9=You Make It Sound So Easy
TTITLE10=Young Love
TTITLE11=Good Rockin' Baby
TTITLE12=Let's Go Boppin' Tonight!
TTITLE13=Cry, Cry Daling
TTITLE14=Red Cadillac and A Black Moustache
TTITLE15=Singing The Blues
TTITLE16=Blue Boy
TTITLE17=Bye, Bye Baby, Bye, Bye
TTITLE18=Lonesome Town
TTITLE19=From A Jack To A King
TTITLE20=I Guess I'm Crazy
TTITLE21=Big Fat Baby
TTITLE22=I Feel Like Rockin'
TTITLE23=Wild Boppin' Daddy
EXTD=
EXTT0=
EXTT1=
EXTT2=
EXTT3=
EXTT4=
EXTT5=
EXTT6=
EXTT7=
EXTT8=
EXTT9=
EXTT10=
EXTT11=
EXTT12=
EXTT13=
EXTT14=
EXTT15=
EXTT16=
EXTT17=
EXTT18=
EXTT19=
EXTT20=
EXTT21=
EXTT22=
EXTT23=
PLAYORDER=
